<svg width="18" height="18" viewBox="0 0 18 18" fill="none" xmlns="http://www.w3.org/2000/svg">
<g clip-path="url(#clip0_3920_26309)">
<path d="M7.44668 7.6204C7.20785 7.64005 6.98515 7.7488 6.82279 7.92506C6.66044 8.10132 6.57031 8.33219 6.57031 8.57183C6.57031 8.81146 6.66044 9.04234 6.82279 9.2186C6.98515 9.39485 7.20785 9.50361 7.44668 9.52325C7.56687 9.51885 7.685 9.49068 7.79424 9.44038C7.90348 9.39008 8.00168 9.31864 8.08317 9.23018C8.16465 9.14172 8.22781 9.038 8.26899 8.925C8.31017 8.81201 8.32857 8.69197 8.32311 8.57183C8.329 8.45158 8.31091 8.33136 8.26989 8.21818C8.22887 8.10499 8.16573 8.0011 8.08417 7.91255C8.0026 7.824 7.90423 7.75257 7.79478 7.70241C7.68534 7.65225 7.56701 7.62438 7.44668 7.6204ZM10.5753 7.6204C10.3838 7.60465 10.192 7.64707 10.025 7.74209C9.85794 7.83711 9.7235 7.98031 9.63919 8.15297C9.55489 8.32564 9.52465 8.51972 9.55243 8.70985C9.58021 8.89998 9.66471 9.0773 9.7949 9.21862C9.92508 9.35995 10.0949 9.4587 10.2821 9.50196C10.4693 9.54522 10.6652 9.53099 10.8442 9.46111C11.0232 9.39123 11.1769 9.26897 11.2853 9.11031C11.3937 8.95165 11.4517 8.76397 11.4517 8.57183C11.4571 8.45185 11.4388 8.33199 11.3978 8.21913C11.3567 8.10627 11.2938 8.00264 11.2125 7.91421C11.1312 7.82578 11.0333 7.75429 10.9243 7.70387C10.8153 7.65345 10.6974 7.62508 10.5774 7.6204H10.5753Z" fill="#22252D"/>
<path d="M14.7429 0.429688H3.25715C3.02566 0.430249 2.79655 0.476438 2.58291 0.565611C2.36928 0.654785 2.17532 0.785195 2.01213 0.949384C1.84894 1.11357 1.71971 1.30832 1.63183 1.52249C1.54396 1.73666 1.49917 1.96605 1.50001 2.19754V13.784C1.49917 14.0155 1.54396 14.2449 1.63183 14.459C1.71971 14.6732 1.84894 14.8679 2.01213 15.0321C2.17532 15.1963 2.36928 15.3267 2.58291 15.4159C2.79655 15.5051 3.02566 15.5513 3.25715 15.5518H12.9772L12.5229 13.9661L13.62 14.984L14.6572 15.944L16.5 17.5725V2.19754C16.5009 1.96605 16.4561 1.73666 16.3682 1.52249C16.2803 1.30832 16.1511 1.11357 15.9879 0.949384C15.8247 0.785195 15.6307 0.654785 15.4171 0.565611C15.2035 0.476438 14.9744 0.430249 14.7429 0.429688V0.429688ZM11.4343 11.6261C11.4343 11.6261 11.1257 11.2575 10.8686 10.9297C11.4903 10.7844 12.0407 10.4239 12.4222 9.91183C12.1137 10.1171 11.7831 10.2867 11.4364 10.4175C11.0377 10.5877 10.6207 10.7114 10.1936 10.7861C9.45948 10.9213 8.70662 10.9184 7.97358 10.7775C7.54323 10.6933 7.12147 10.57 6.71358 10.409C6.36915 10.2754 6.04011 10.1052 5.73215 9.90111C6.09896 10.4028 6.62954 10.7606 7.23215 10.9125C6.97501 11.2383 6.65787 11.624 6.65787 11.624C6.1487 11.6377 5.64396 11.5261 5.18808 11.2989C4.73221 11.0717 4.33917 10.7359 4.04358 10.3211C4.07074 8.58361 4.49204 6.87494 5.27573 5.32397C5.96662 4.7814 6.80902 4.46691 7.68644 4.42397L7.77215 4.52683C6.94736 4.73095 6.17767 5.11432 5.51787 5.64969C5.51787 5.64969 5.70644 5.54683 6.02358 5.40112C6.64038 5.11965 7.29777 4.93741 7.97144 4.86112C8.01942 4.85118 8.06818 4.84545 8.11715 4.84397C8.69154 4.76914 9.27283 4.76338 9.84858 4.82683C10.754 4.93024 11.6305 5.20978 12.4286 5.64969C11.8022 5.13983 11.0748 4.76879 10.2943 4.56112L10.4143 4.42397C11.2917 4.46691 12.1341 4.7814 12.825 5.32397C13.6087 6.87494 14.03 8.58361 14.0572 10.3211C13.7594 10.7359 13.3648 11.0716 12.9076 11.299C12.4505 11.5265 11.9447 11.6387 11.4343 11.6261Z" fill="#22252D"/>
</g>
<defs>
<clipPath id="clip0_3920_26309">
<rect width="17.1429" height="17.1429" fill="white" transform="translate(0.428711 0.429688)"/>
</clipPath>
</defs>
</svg>
