<svg width="18" height="18" viewBox="0 0 18 18" fill="none" xmlns="http://www.w3.org/2000/svg">
<g clip-path="url(#clip0_3920_26322)">
<path d="M9.00042 11.7137C10.4995 11.7137 11.7147 10.4985 11.7147 8.99944C11.7147 7.50038 10.4995 6.28516 9.00042 6.28516C7.50136 6.28516 6.28613 7.50038 6.28613 8.99944C6.28613 10.4985 7.50136 11.7137 9.00042 11.7137Z" fill="#22252D"/>
<path d="M12.3925 0.857422H5.60674C2.98814 0.857422 0.857422 2.98882 0.857422 5.6081V12.3938C0.857422 15.0124 2.98882 17.1431 5.6081 17.1431H12.3938C15.0124 17.1431 17.1431 15.0117 17.1431 12.3925V5.60674C17.1431 2.98814 15.0117 0.857422 12.3925 0.857422ZM9.00028 13.0717C6.75489 13.0717 4.92885 11.2457 4.92885 9.00028C4.92885 6.75489 6.75489 4.92885 9.00028 4.92885C11.2457 4.92885 13.0717 6.75489 13.0717 9.00028C13.0717 11.2457 11.2457 13.0717 9.00028 13.0717ZM13.7503 4.92885C13.3757 4.92885 13.0717 4.62485 13.0717 4.25028C13.0717 3.87571 13.3757 3.57171 13.7503 3.57171C14.1249 3.57171 14.4289 3.87571 14.4289 4.25028C14.4289 4.62485 14.1249 4.92885 13.7503 4.92885Z" fill="#22252D"/>
</g>
<defs>
<clipPath id="clip0_3920_26322">
<rect width="17.1429" height="17.1429" fill="white" transform="translate(0.428711 0.429688)"/>
</clipPath>
</defs>
</svg>
