<svg width="20" height="20" viewBox="0 0 20 20" fill="none" xmlns="http://www.w3.org/2000/svg">
<g clip-path="url(#clip0_3830_19332)">
<path d="M6 2.66667V9.33333H14V2.66667C14 2.48986 13.9298 2.32029 13.8047 2.19526C13.6797 2.07024 13.5101 2 13.3333 2H6.66667C6.48986 2 6.32029 2.07024 6.19526 2.19526C6.07024 2.32029 6 2.48986 6 2.66667ZM10.7793 7.33333H9.86667V5.568C9.86667 5.35333 9.87133 5.15733 9.88067 4.98C9.81608 5.05645 9.74588 5.12798 9.67067 5.194L9.29267 5.506L8.826 4.932L9.968 4H10.7793V7.33333Z" fill="#7F8596"/>
<path d="M2 11.3327V17.3327C2 17.5095 2.07024 17.6791 2.19526 17.8041C2.32029 17.9291 2.48986 17.9993 2.66667 17.9993H9.33333V10.666H2.66667C2.48986 10.666 2.32029 10.7363 2.19526 10.8613C2.07024 10.9863 2 11.1559 2 11.3327V11.3327ZM6.856 15.9993H4.43867V15.4067L5.252 14.584C5.48489 14.3413 5.63689 14.1756 5.708 14.0867C5.76675 14.0166 5.81668 13.9396 5.85667 13.8573C5.88495 13.7945 5.8995 13.7263 5.89933 13.6573C5.90125 13.6191 5.89466 13.5809 5.88001 13.5455C5.86537 13.5101 5.84305 13.4784 5.81467 13.4527C5.74794 13.3989 5.66353 13.372 5.578 13.3773C5.46599 13.3793 5.3564 13.4103 5.26 13.4673C5.13031 13.5439 5.0086 13.6333 4.89667 13.734L4.4 13.1533C4.53262 13.0291 4.6776 12.9188 4.83267 12.824C4.95271 12.7568 5.08118 12.7059 5.21467 12.6727C5.36744 12.6359 5.5242 12.6182 5.68133 12.62C5.87968 12.6167 6.07647 12.6555 6.25867 12.734C6.41859 12.8022 6.55557 12.9149 6.65333 13.0587C6.74599 13.1988 6.79452 13.3634 6.79267 13.5313C6.79709 13.776 6.72737 14.0164 6.59267 14.2207C6.51281 14.342 6.42151 14.4554 6.32 14.5593C6.20711 14.678 5.966 14.9029 5.59667 15.234V15.2567H6.85667L6.856 15.9993Z" fill="#7F8596"/>
<path d="M10.667 10.666V17.9993H17.3337C17.5105 17.9993 17.68 17.9291 17.8051 17.8041C17.9301 17.6791 18.0003 17.5095 18.0003 17.3327V11.3327C18.0003 11.1559 17.9301 10.9863 17.8051 10.8613C17.68 10.7363 17.5105 10.666 17.3337 10.666H10.667ZM15.1417 15.778C14.8376 15.9724 14.4799 16.0657 14.1197 16.0447C13.9529 16.0458 13.7863 16.0329 13.6217 16.006C13.452 15.9758 13.2858 15.9284 13.1257 15.8647V15.1173C13.2669 15.1903 13.4164 15.2458 13.571 15.2827C13.708 15.3167 13.8485 15.3346 13.9897 15.336C14.1384 15.3464 14.2873 15.3179 14.4217 15.2533C14.4655 15.2259 14.501 15.1872 14.5245 15.1411C14.548 15.0951 14.5585 15.0436 14.555 14.992C14.56 14.9152 14.5347 14.8396 14.4843 14.7813C14.4204 14.7234 14.3413 14.6848 14.2563 14.67C14.1216 14.6417 13.984 14.629 13.8463 14.632H13.641V13.9553H13.851C14.3083 13.9553 14.537 13.8385 14.537 13.6047C14.5394 13.5658 14.5311 13.5271 14.5131 13.4926C14.4952 13.458 14.4682 13.429 14.435 13.4087C14.3524 13.3612 14.2581 13.3381 14.163 13.342C13.927 13.3494 13.6978 13.4236 13.5023 13.556L13.1283 12.956C13.2932 12.8401 13.4761 12.7522 13.6697 12.696C13.8768 12.6417 14.0903 12.6157 14.3043 12.6187C14.5894 12.6028 14.8725 12.6744 15.1157 12.824C15.2088 12.8852 15.2848 12.9692 15.3363 13.068C15.3877 13.1669 15.413 13.2773 15.4097 13.3887C15.4136 13.5836 15.3463 13.7732 15.2203 13.922C15.0745 14.0817 14.884 14.1939 14.6737 14.244V14.258C15.2297 14.3282 15.5077 14.5909 15.5077 15.046C15.5129 15.1889 15.4821 15.3309 15.4181 15.4588C15.3542 15.5867 15.2591 15.6964 15.1417 15.778Z" fill="#7F8596"/>
</g>
<defs>
<clipPath id="clip0_3830_19332">
<rect width="16" height="16" fill="white" transform="translate(2 2)"/>
</clipPath>
</defs>
</svg>
