<svg width="20" height="20" viewBox="0 0 20 20" fill="none" xmlns="http://www.w3.org/2000/svg">
<path fill-rule="evenodd" clip-rule="evenodd" d="M16.696 8.36364C16.696 9.94705 16.1464 11.4021 15.2274 12.5484H15.2313C15.2313 12.5484 12.9043 15.6624 11.1016 17.8674C10.5264 18.5708 9.47445 18.5706 8.8997 17.8668C7.1027 15.6667 4.77865 12.5551 4.77865 12.5551L4.77324 12.5484C3.85433 11.4021 3.30469 9.94705 3.30469 8.36364C3.30469 4.66572 6.30243 1.66797 10.0004 1.66797C13.6983 1.66797 16.696 4.66572 16.696 8.36364ZM12.5004 8.33464C12.5004 9.71539 11.3812 10.8346 10.0004 10.8346C8.6197 10.8346 7.50045 9.71539 7.50045 8.33464C7.50045 6.95393 8.6197 5.83464 10.0004 5.83464C11.3812 5.83464 12.5004 6.95393 12.5004 8.33464Z" fill="#30B38C"/>
</svg>
