<svg width="18" height="18" viewBox="0 0 18 18" fill="none" xmlns="http://www.w3.org/2000/svg">
<g clip-path="url(#clip0_3920_26332)">
<path d="M17.5367 2.23536C17.5229 2.17209 17.4926 2.11362 17.4488 2.0659C17.405 2.01819 17.3494 1.98294 17.2876 1.96375C17.0625 1.91936 16.8296 1.936 16.6131 2.01197C16.6131 2.01197 1.59328 7.41036 0.735602 8.00822C0.550245 8.13679 0.488638 8.21125 0.458102 8.29964C0.309709 8.725 0.771495 8.9125 0.771495 8.9125L4.64257 10.1741C4.70795 10.1854 4.77507 10.1814 4.83864 10.1623C5.71935 9.60625 13.6988 4.56732 14.1601 4.39804C14.2324 4.37607 14.286 4.39804 14.2742 4.45161C14.0856 5.09768 7.19471 11.2214 7.15667 11.2589C7.13818 11.2741 7.12365 11.2935 7.11432 11.3155C7.10499 11.3376 7.10114 11.3615 7.1031 11.3854L6.7431 15.1627C6.7431 15.1627 6.59203 16.3413 7.76846 15.1627C8.60257 14.3275 9.40292 13.6364 9.80417 13.3005C11.1354 14.2193 12.5679 15.2355 13.1856 15.7648C13.2892 15.8655 13.4121 15.9442 13.5469 15.9963C13.6816 16.0484 13.8255 16.0728 13.9699 16.068C14.5592 16.0455 14.7199 15.4011 14.7199 15.4011C14.7199 15.4011 17.4563 4.38947 17.5485 2.91357C17.557 2.76893 17.5693 2.67625 17.5704 2.57715C17.5753 2.4622 17.5639 2.34713 17.5367 2.23536Z" fill="#22252D"/>
</g>
<defs>
<clipPath id="clip0_3920_26332">
<rect width="17.1429" height="17.1429" fill="white" transform="translate(0.428711 0.429688)"/>
</clipPath>
</defs>
</svg>
