<svg width="18" height="18" viewBox="0 0 18 18" fill="none" xmlns="http://www.w3.org/2000/svg">
<g clip-path="url(#clip0_3920_26318)">
<path d="M17.5714 3.69782C16.9286 3.96568 16.2857 4.17997 15.5357 4.23354C16.2857 3.80497 16.8214 3.10854 17.0893 2.30497C16.3929 2.73354 15.6429 3.00139 14.8393 3.16211C14.1964 2.46568 13.2857 2.03711 12.3214 2.03711C10.3929 2.03711 8.78571 3.59068 8.78571 5.57282C8.78571 5.84068 8.83929 6.10854 8.89286 6.37639C5.94643 6.21568 3.375 4.82282 1.60714 2.67997C1.28571 3.21568 1.125 3.80497 1.125 4.44782C1.125 5.67997 1.76786 6.75139 2.67857 7.39425C2.08929 7.39425 1.55357 7.23354 1.07143 6.96568V7.01925C1.07143 8.73354 2.30357 10.1264 3.91071 10.4478C3.58929 10.5014 3.32143 10.555 3 10.555C2.78571 10.555 2.57143 10.555 2.35714 10.5014C2.78571 11.8942 4.125 12.9121 5.625 12.9657C4.44643 13.93 2.89286 14.4657 1.23214 14.4657C0.964286 14.4657 0.642857 14.4657 0.375 14.4121C1.98214 15.3764 3.85714 15.9657 5.83929 15.9657C12.3214 15.9657 15.8571 10.6085 15.8571 5.94782C15.8571 5.78711 15.8571 5.62639 15.8571 5.51925C16.5 4.98354 17.0893 4.39425 17.5714 3.69782Z" fill="#22252D"/>
</g>
<defs>
<clipPath id="clip0_3920_26318">
<rect width="17.1429" height="17.1429" fill="white" transform="translate(0.428711 0.429688)"/>
</clipPath>
</defs>
</svg>
